<svg xmlns="http://www.w3.org/2000/svg" xmlns:xlink="http://www.w3.org/1999/xlink" width="256" height="256" viewBox="0 0 256 256">
  <defs>
    <rect id="ank-a" width="256" height="256"/>
  </defs>
  <g fill="none" fill-rule="evenodd">
    <mask id="ank-b" fill="#fff">
      <use xlink:href="#ank-a"/>
    </mask>
    <use fill="#212D3E" xlink:href="#ank-a"/>
    <g mask="url(#ank-b)">
      <g transform="translate(152 67)">
        <polygon fill="#FC3" points="104 56 0 216 104 272"/>
        <polygon fill="#F6850D" points="88 0 88 300 232 224" opacity=".34"/>
      </g>
    </g>
    <polygon stroke="#FFF" points="-266.443 157.361 -266.443 589.361 -58.443 477.361" mask="url(#ank-b)" opacity=".24" transform="scale(1 -1) rotate(75 324.13 0)"/>
    <g transform="translate(57 89)">
      <polygon fill="#FC3" points="27.97 15.12 0 58.32 27.97 73.44"/>
      <polygon fill="#FFA814" points="27.97 15.12 27.97 73.44 55.939 58.32"/>
      <polygon fill="#F6850D" points="23.667 0 23.667 81 62.394 60.48" opacity=".34"/>
      <g fill="#FFF" opacity=".724" transform="translate(68.848 19.44)">
        <path d="M44.8014303,10.593288 C46.1461273,11.917368 46.8174,13.846248 46.8174,16.382088 L46.8174,26.922888 L44.3732788,26.922888 L44.3732788,16.624008 C44.3732788,14.734008 43.902097,13.293288 42.9618848,12.304008 C42.0195212,11.312568 40.6769758,10.817928 38.932097,10.817928 C36.9806727,10.817928 35.4380364,11.398968 34.3041879,12.561048 C33.1660364,13.725288 32.5980364,15.332328 32.5980364,17.384328 L32.5980364,26.922888 L30.1539152,26.922888 L30.1539152,8.744328 L32.4947636,8.744328 L32.4947636,12.094488 C33.1617333,10.990728 34.0868848,10.131048 35.2659152,9.521928 C36.447097,8.910648 37.8197636,8.603928 39.3796121,8.603928 C41.6537636,8.603928 43.4610364,9.269208 44.8014303,10.593288"/>
        <polygon points="62.341 17.799 58.075 21.737 58.075 26.923 55.631 26.923 55.631 1.279 58.075 1.279 58.075 18.661 68.884 8.744 71.911 8.744 64.166 16.175 72.634 26.923 69.642 26.923"/>
        <polygon points="12.256 5.392 2.649 26.922 .001 26.922 12.256 0 13.529 2.73 24.543 26.922 21.858 26.922"/>
      </g>
    </g>
  </g>
</svg>
